<?xml version="1.0" encoding="UTF-8" standalone="no"?>
<!-- Created with Inkscape (http://www.inkscape.org/) -->

<svg
   xmlns:dc="http://purl.org/dc/elements/1.1/"
   xmlns:cc="http://creativecommons.org/ns#"
   xmlns:rdf="http://www.w3.org/1999/02/22-rdf-syntax-ns#"
   xmlns:svg="http://www.w3.org/2000/svg"
   xmlns="http://www.w3.org/2000/svg"
   xmlns:sodipodi="http://sodipodi.sourceforge.net/DTD/sodipodi-0.dtd"
   xmlns:inkscape="http://www.inkscape.org/namespaces/inkscape"
   id="svg2"
   version="1.1"
   inkscape:version="0.48.4 r9939"
   width="209.31"
   height="320.48999"
   sodipodi:docname="250px-Flag_icon_blue_1.svg">
  <metadata
     id="metadata8">
    <rdf:RDF>
      <cc:Work
         rdf:about="">
        <dc:format>image/svg+xml</dc:format>
        <dc:type
           rdf:resource="http://purl.org/dc/dcmitype/StillImage" />
        <dc:title></dc:title>
      </cc:Work>
    </rdf:RDF>
  </metadata>
  <defs
     id="defs6" />
  <sodipodi:namedview
     pagecolor="#ffffff"
     bordercolor="#666666"
     borderopacity="1"
     objecttolerance="10"
     gridtolerance="10"
     guidetolerance="10"
     inkscape:pageopacity="0"
     inkscape:pageshadow="2"
     inkscape:window-width="1366"
     inkscape:window-height="688"
     id="namedview4"
     showgrid="false"
     fit-margin-top="0"
     fit-margin-left="0"
     fit-margin-right="0"
     fit-margin-bottom="0"
     inkscape:zoom="1.3447293"
     inkscape:cx="68.362732"
     inkscape:cy="156.59788"
     inkscape:window-x="0"
     inkscape:window-y="25"
     inkscape:window-maximized="1"
     inkscape:current-layer="svg2" />
  <path
     style="fill:#ffeb00;fill-opacity:1;stroke:none"
     d="m 195.98415,35.138218 c -19.03522,71.892122 -4.08005,84.615762 1.85911,113.033922 -48.16339,9.99674 -74.16112,33.90595 -180.705499,-3.34639 l 0,-114.89304 C 112.79113,65.057994 148.26355,46.065997 195.98415,35.138218 z"
     id="path2993"
     inkscape:connector-curvature="0"
     sodipodi:nodetypes="ccccc" />
  <path
     style="fill:#000000"
     d="m 12.800198,315.59936 c -1.75289,-0.46989 -4.1153899,-2.03451 -5.2499999,-3.47692 -2.06291,-2.62257 -2.06291,-2.62265 -2.06291,-151.56463 l 0,-148.94208 2.92308,-2.9230802 C 13.138978,3.9640295 21.021038,4.6448694 24.471858,10.08002 c 0.76459,1.20425 1.64335,5.30282 1.9528,9.10792 l 0.56263,6.91838 12.31537,4.87346 c 27.89262,11.03772 47.425193,15.19423 71.184622,15.14801 22.82736,-0.0444 40.00495,-3.40568 73.44303,-14.37115 8.36414,-2.74289 15.95079,-4.98707 16.8592,-4.98707 0.90842,0 2.3429,1.05496 3.18774,2.34434 1.4452,2.20567 1.23309,3.0486 -3.5859,14.25 -8.09444,18.81494 -10.20281,28.10161 -10.30855,45.405656 -0.11217,18.356574 1.89718,27.212714 11.06819,48.782514 3.45852,8.13429 4.15536,10.68707 3.33547,12.21905 -2.03138,3.79565 -47.49724,16.7244 -68.49249,19.47664 -27.64824,3.62436 -53.620819,0.79545 -90.614462,-9.86967 -8.46572,-2.44064 -16.17972,-4.74914 -17.14222,-5.13 -1.65748,-0.65588 -1.75,3.36304 -1.75,76.01337 0,67.10965 -0.19332,77.11325 -1.54525,79.96223 -2.22724,4.69356 -6.92593,6.77385 -12.14184,5.37566 z M 146.83768,157.38354 c 11.69356,-2.43616 42.04115,-11.00184 44.61538,-12.5928 1.04835,-0.64792 0.57102,-2.70288 -2.28576,-9.84049 -12.16553,-30.39537 -12.55069,-59.16625 -1.18046,-88.17957 2.14318,-5.46872 2.22974,-6.15636 0.71857,-5.70842 -43.49238,12.89184 -54.59408,15.01311 -78.71813,15.04117 -15.748329,0.0183 -19.626189,-0.31761 -30.999989,-2.68544 -7.150003,-1.48851 -20.875003,-5.41823 -30.500003,-8.7327 -9.625,-3.31446 -18.2875,-6.27891 -19.25,-6.58764 -1.65172,-0.52981 -1.75,2.41523 -1.75,52.437426 l 0,52.998804 8.25,2.55211 c 21.60034,6.682 39.423533,10.98925 54.750003,13.23119 14.518999,2.12382 41.282799,1.20543 56.350389,-1.93364 z"
     id="path2989"
     inkscape:connector-curvature="0" />
</svg>
